{
  "accessors": [
    {
      "bufferView": 2,
      "componentType": 5126,
      "count": 1602,
      "max": [
        21.142934799194336,
        21.142934799194336,
        39.849952697753906
      ],
      "min": [
        -21.142934799194336,
        -21.142934799194336,
        2.7604212760925293
      ],
      "type": "VEC3"
    },
    {
      "bufferView": 2,
      "byteOffset": 19224,
      "componentType": 5126,
      "count": 1602,
      "type": "VEC3"
    },
    {
      "bufferView": 1,
      "componentType": 5126,
      "count": 1602,
      "type": "VEC2"
    },
    {
      "bufferView": 0,
      "componentType": 5125,
      "count": 9216,
      "type": "SCALAR"
    },
    {
      "bufferView": 2,
      "byteOffset": 38448,
      "componentType": 5126,
      "count": 23346,
      "max": [
        47.55341720581055,
        24.042816162109375,
        112.5527572631836
      ],
      "min": [
        -47.55341720581055,
        -23.81527328491211,
        -0.24999618530273438
      ],
      "type": "VEC3"
    },
    {
      "bufferView": 2,
      "byteOffset": 318600,
      "componentType": 5126,
      "count": 23346,
      "type": "VEC3"
    },
    {
      "bufferView": 3,
      "componentType": 5126,
      "count": 23346,
      "type": "VEC4"
    },
    {
      "bufferView": 1,
      "byteOffset": 12816,
      "componentType": 5126,
      "count": 23346,
      "type": "VEC2"
    },
    {
      "bufferView": 1,
      "byteOffset": 199584,
      "componentType": 5126,
      "count": 23346,
      "type": "VEC2"
    },
    {
      "bufferView": 0,
      "byteOffset": 36864,
      "componentType": 5125,
      "count": 117696,
      "type": "SCALAR"
    },
    {
      "bufferView": 2,
      "byteOffset": 598752,
      "componentType": 5126,
      "count": 8507,
      "max": [
        30.000125885009766,
        53.33928680419922,
        88.4542465209961
      ],
      "min": [
        -35.10057067871094,
        -25.325355529785156,
        15.08736801147461
      ],
      "type": "VEC3"
    },
    {
      "bufferView": 2,
      "byteOffset": 700836,
      "componentType": 5126,
      "count": 8507,
      "type": "VEC3"
    },
    {
      "bufferView": 3,
      "byteOffset": 373536,
      "componentType": 5126,
      "count": 8507,
      "type": "VEC4"
    },
    {
      "bufferView": 1,
      "byteOffset": 386352,
      "componentType": 5126,
      "count": 8507,
      "type": "VEC2"
    },
    {
      "bufferView": 1,
      "byteOffset": 454408,
      "componentType": 5126,
      "count": 8507,
      "type": "VEC2"
    },
    {
      "bufferView": 0,
      "byteOffset": 507648,
      "componentType": 5125,
      "count": 40740,
      "type": "SCALAR"
    },
    {
      "bufferView": 2,
      "byteOffset": 802920,
      "componentType": 5126,
      "count": 1832,
      "max": [
        18.263072967529297,
        18.260637283325195,
        36.97930145263672
      ],
      "min": [
        -18.263072967529297,
        -18.264371871948242,
        5.691587448120117
      ],
      "type": "VEC3"
    },
    {
      "bufferView": 2,
      "byteOffset": 824904,
      "componentType": 5126,
      "count": 1832,
      "type": "VEC3"
    },
    {
      "bufferView": 1,
      "byteOffset": 522464,
      "componentType": 5126,
      "count": 1832,
      "type": "VEC2"
    },
    {
      "bufferView": 0,
      "byteOffset": 670608,
      "componentType": 5125,
      "count": 9216,
      "type": "SCALAR"
    },
    {
      "bufferView": 2,
      "byteOffset": 846888,
      "componentType": 5126,
      "count": 65532,
      "max": [
        146.10720825195313,
        144.92506408691406,
        2.247518539428711
      ],
      "min": [
        -146.53897094726563,
        -146.32615661621094,
        -29.59332275390625
      ],
      "type": "VEC3"
    },
    {
      "bufferView": 2,
      "byteOffset": 1633272,
      "componentType": 5126,
      "count": 65532,
      "type": "VEC3"
    },
    {
      "bufferView": 1,
      "byteOffset": 537120,
      "componentType": 5126,
      "count": 65532,
      "type": "VEC2"
    },
    {
      "bufferView": 0,
      "byteOffset": 707472,
      "componentType": 5125,
      "count": 292929,
      "type": "SCALAR"
    },
    {
      "bufferView": 2,
      "byteOffset": 2419656,
      "componentType": 5126,
      "count": 65532,
      "max": [
        145.7332763671875,
        144.80569458007813,
        2.0520381927490234
      ],
      "min": [
        -105.59805297851563,
        -133.71929931640625,
        -29.48423957824707
      ],
      "type": "VEC3"
    },
    {
      "bufferView": 2,
      "byteOffset": 3206040,
      "componentType": 5126,
      "count": 65532,
      "type": "VEC3"
    },
    {
      "bufferView": 1,
      "byteOffset": 1061376,
      "componentType": 5126,
      "count": 65532,
      "type": "VEC2"
    },
    {
      "bufferView": 0,
      "byteOffset": 1879188,
      "componentType": 5125,
      "count": 233100,
      "type": "SCALAR"
    },
    {
      "bufferView": 2,
      "byteOffset": 3992424,
      "componentType": 5126,
      "count": 22038,
      "max": [
        61.85760498046875,
        143.5175018310547,
        -3.8798046112060547
      ],
      "min": [
        -120.63587951660156,
        -146.00619506835938,
        -28.429481506347656
      ],
      "type": "VEC3"
    },
    {
      "bufferView": 2,
      "byteOffset": 4256880,
      "componentType": 5126,
      "count": 22038,
      "type": "VEC3"
    },
    {
      "bufferView": 1,
      "byteOffset": 1585632,
      "componentType": 5126,
      "count": 22038,
      "type": "VEC2"
    },
    {
      "bufferView": 0,
      "byteOffset": 2811588,
      "componentType": 5125,
      "count": 59445,
      "type": "SCALAR"
    }
  ],
  "asset": {
    "generator": "fab-model-conversion",
    "version": "2.0"
  },
  "bufferViews": [
    {
      "buffer": 0,
      "byteLength": 3049368,
      "target": 34963
    },
    {
      "buffer": 0,
      "byteLength": 1761936,
      "byteOffset": 3049368,
      "byteStride": 8,
      "target": 34962
    },
    {
      "buffer": 0,
      "byteLength": 4521336,
      "byteOffset": 4811304,
      "byteStride": 12,
      "target": 34962
    },
    {
      "buffer": 0,
      "byteLength": 509648,
      "byteOffset": 9332640,
      "byteStride": 16,
      "target": 34962
    }
  ],
  "buffers": [
    {
      "byteLength": 9842288,
      "uri": "scene.bin"
    }
  ],
  "extensionsUsed": [
    "KHR_materials_specular"
  ],
  "images": [
    {
      "uri": "textures/14_-_Default_baseColor.jpeg"
    },
    {
      "uri": "textures/14_-_Default_metallicRoughness.jpeg"
    },
    {
      "uri": "textures/04_-_Default_baseColor.png"
    },
    {
      "uri": "textures/04_-_Default_metallicRoughness.png"
    },
    {
      "uri": "textures/04_-_Default_normal.png"
    },
    {
      "uri": "textures/04_-_Defaulth_baseColor.png"
    },
    {
      "uri": "textures/04_-_Defaulth_metallicRoughness.png"
    },
    {
      "uri": "textures/04_-_Defaulth_normal.png"
    },
    {
      "uri": "textures/08_-_Default_baseColor.png"
    }
  ],
  "materials": [
    {
      "alphaMode": "BLEND",
      "doubleSided": true,
      "extensions": {
        "KHR_materials_specular": {
          "specularColorFactor": [
            1.0,
            1.0,
            1.0
          ],
          "specularFactor": 1.0
        }
      },
      "name": "14_-_Default",
      "pbrMetallicRoughness": {
        "baseColorFactor": [
          0.15,
          0.15,
          0.15,
          0.75
        ],
        "baseColorTexture": {
          "index": 0
        },
        "metallicFactor": 0.5,
        "metallicRoughnessTexture": {
          "index": 1
        }
      }
    },
    {
      "doubleSided": true,
      "name": "04_-_Default",
      "normalTexture": {
        "index": 4
      },
      "pbrMetallicRoughness": {
        "baseColorTexture": {
          "index": 2
        },
        "metallicFactor": 0.0,
        "metallicRoughnessTexture": {
          "index": 3
        }
      }
    },
    {
      "doubleSided": true,
      "name": "04_-_Defaulth",
      "normalTexture": {
        "index": 7
      },
      "pbrMetallicRoughness": {
        "baseColorTexture": {
          "index": 5
        },
        "metallicFactor": 0.0,
        "metallicRoughnessTexture": {
          "index": 6
        }
      }
    },
    {
      "doubleSided": true,
      "name": "02_-_Default",
      "pbrMetallicRoughness": {
        "baseColorFactor": [
          0.34715108505344794,
          0.17411339630994893,
          0.08073352369665922,
          1.0
        ],
        "metallicFactor": 0.0,
        "roughnessFactor": 0.6
      }
    },
    {
      "doubleSided": true,
      "name": "08_-_Default",
      "pbrMetallicRoughness": {
        "baseColorFactor": [
          0.25,
          0.25,
          0.25,
          1.0
        ],
        "baseColorTexture": {
          "index": 8
        },
        "metallicFactor": 0.0
      }
    }
  ],
  "meshes": [
    {
      "name": "Box032_14 - Default_0",
      "primitives": [
        {
          "attributes": {
            "NORMAL": 1,
            "POSITION": 0,
            "TEXCOORD_0": 2
          },
          "indices": 3,
          "material": 0,
          "mode": 4
        }
      ]
    },
    {
      "name": "tyFlow007Low002_04 - Default_0",
      "primitives": [
        {
          "attributes": {
            "NORMAL": 5,
            "POSITION": 4,
            "TANGENT": 6,
            "TEXCOORD_0": 7,
            "TEXCOORD_1": 8
          },
          "indices": 9,
          "material": 1,
          "mode": 4
        }
      ]
    },
    {
      "name": "Object005_04 - Defaulth_0",
      "primitives": [
        {
          "attributes": {
            "NORMAL": 11,
            "POSITION": 10,
            "TANGENT": 12,
            "TEXCOORD_0": 13,
            "TEXCOORD_1": 14
          },
          "indices": 15,
          "material": 2,
          "mode": 4
        }
      ]
    },
    {
      "name": "Box033_02 - Default_0",
      "primitives": [
        {
          "attributes": {
            "NORMAL": 17,
            "POSITION": 16,
            "TEXCOORD_0": 18
          },
          "indices": 19,
          "material": 3,
          "mode": 4
        }
      ]
    },
    {
      "name": "Box034_08 - Default_0",
      "primitives": [
        {
          "attributes": {
            "NORMAL": 21,
            "POSITION": 20,
            "TEXCOORD_0": 22
          },
          "indices": 23,
          "material": 4,
          "mode": 4
        }
      ]
    },
    {
      "name": "Box034_08 - Default_0",
      "primitives": [
        {
          "attributes": {
            "NORMAL": 25,
            "POSITION": 24,
            "TEXCOORD_0": 26
          },
          "indices": 27,
          "material": 4,
          "mode": 4
        }
      ]
    },
    {
      "name": "Box034_08 - Default_0",
      "primitives": [
        {
          "attributes": {
            "NORMAL": 29,
            "POSITION": 28,
            "TEXCOORD_0": 30
          },
          "indices": 31,
          "material": 4,
          "mode": 4
        }
      ]
    }
  ],
  "nodes": [
    {
      "children": [
        1
      ],
      "matrix": [
        1.0,
        0.0,
        0.0,
        0.0,
        0.0,
        2.220446049250313e-16,
        -1.0,
        0.0,
        0.0,
        1.0,
        2.220446049250313e-16,
        0.0,
        0.0,
        0.0,
        0.0,
        1.0
      ],
      "name": "Sketchfab_model"
    },
    {
      "children": [
        2
      ],
      "matrix": [
        0.0010000000474974513,
        0.0,
        0.0,
        0.0,
        0.0,
        0.0,
        0.0010000000474974513,
        0.0,
        0.0,
        -0.0010000000474974513,
        0.0,
        0.0,
        0.0,
        0.0,
        0.0,
        1.0
      ],
      "name": "Astro4SF.fbx"
    },
    {
      "children": [
        3,
        5,
        7,
        9,
        11
      ],
      "name": "RootNode"
    },
    {
      "children": [
        4
      ],
      "matrix": [
        1.0,
        0.0,
        0.0,
        0.0,
        0.0,
        0.17364805246645443,
        -0.9848077750884218,
        0.0,
        0.0,
        0.9848077750884218,
        0.17364805246645443,
        0.0,
        0.0,
        69.64401245117188,
        -0.7310543060302734,
        1.0
      ],
      "name": "Box032"
    },
    {
      "mesh": 0,
      "name": "Box032_14 - Default_0"
    },
    {
      "children": [
        6
      ],
      "matrix": [
        1.0,
        0.0,
        0.0,
        0.0,
        0.0,
        2.220446049250313e-16,
        -1.0,
        0.0,
        0.0,
        1.0,
        2.220446049250313e-16,
        0.0,
        0.0,
        0.0,
        0.0,
        1.0
      ],
      "name": "tyFlow007Low002"
    },
    {
      "mesh": 1,
      "name": "tyFlow007Low002_04 - Default_0"
    },
    {
      "children": [
        8
      ],
      "matrix": [
        1.0,
        0.0,
        0.0,
        0.0,
        0.0,
        2.220446049250313e-16,
        -1.0,
        0.0,
        0.0,
        1.0,
        2.220446049250313e-16,
        0.0,
        0.0,
        0.0,
        0.0,
        1.0
      ],
      "name": "Object005"
    },
    {
      "mesh": 2,
      "name": "Object005_04 - Defaulth_0"
    },
    {
      "children": [
        10
      ],
      "matrix": [
        1.0,
        0.0,
        0.0,
        0.0,
        0.0,
        0.17364805246645443,
        -0.9848077750884218,
        0.0,
        0.0,
        0.9848077750884218,
        0.17364805246645443,
        0.0,
        0.0,
        69.64401245117188,
        -0.7310543060302734,
        1.0
      ],
      "name": "Box033"
    },
    {
      "mesh": 3,
      "name": "Box033_02 - Default_0"
    },
    {
      "children": [
        12,
        13,
        14
      ],
      "matrix": [
        1.0,
        0.0,
        0.0,
        0.0,
        0.0,
        2.220446049250313e-16,
        -1.0,
        0.0,
        0.0,
        1.0,
        2.220446049250313e-16,
        0.0,
        0.0,
        0.0,
        0.0,
        1.0
      ],
      "name": "Box034"
    },
    {
      "mesh": 4,
      "name": "Box034_08 - Default_0"
    },
    {
      "mesh": 5,
      "name": "Box034_08 - Default_0"
    },
    {
      "mesh": 6,
      "name": "Box034_08 - Default_0"
    }
  ],
  "samplers": [
    {
      "magFilter": 9729,
      "minFilter": 9987,
      "wrapS": 10497,
      "wrapT": 10497
    }
  ],
  "scene": 0,
  "scenes": [
    {
      "name": "Sketchfab_Scene",
      "nodes": [
        0
      ]
    }
  ],
  "textures": [
    {
      "sampler": 0,
      "source": 0
    },
    {
      "sampler": 0,
      "source": 1
    },
    {
      "sampler": 0,
      "source": 2
    },
    {
      "sampler": 0,
      "source": 3
    },
    {
      "sampler": 0,
      "source": 4
    },
    {
      "sampler": 0,
      "source": 5
    },
    {
      "sampler": 0,
      "source": 6
    },
    {
      "sampler": 0,
      "source": 7
    },
    {
      "sampler": 0,
      "source": 8
    }
  ]
}
